<svg width="913" height="913" viewBox="0 0 913 913" fill="none" xmlns="http://www.w3.org/2000/svg">
<circle cx="456.5" cy="456.5" r="456.5" fill="#CCD5E0"/>
<path d="M449.72 296.807C449.72 361.928 396.928 414.72 331.807 414.72C266.685 414.72 213.894 361.928 213.894 296.807C213.894 231.685 266.685 178.893 331.807 178.893C396.928 178.893 449.72 231.685 449.72 296.807Z" fill="#24B3FF"/>
<path fill-rule="evenodd" clip-rule="evenodd" d="M479.613 296.807C479.613 378.438 413.438 444.613 331.807 444.613C250.175 444.613 184 378.438 184 296.807C184 215.175 250.175 149 331.807 149C413.438 149 479.613 215.175 479.613 296.807ZM331.807 414.72C396.928 414.72 449.72 361.928 449.72 296.807C449.72 231.685 396.928 178.893 331.807 178.893C266.685 178.893 213.893 231.685 213.893 296.807C213.893 361.928 266.685 414.72 331.807 414.72Z" fill="#E4EEF7"/>
<path d="M660.081 511.597C660.081 582.833 602.332 640.582 531.096 640.582C459.86 640.582 402.111 582.833 402.111 511.597C402.111 440.36 459.86 382.612 531.096 382.612C602.332 382.612 660.081 440.36 660.081 511.597Z" fill="#FF9601"/>
<path d="M353.396 655.528C353.396 687.019 327.868 712.547 296.377 712.547C264.887 712.547 239.358 687.019 239.358 655.528C239.358 624.038 264.887 598.509 296.377 598.509C327.868 598.509 353.396 624.038 353.396 655.528Z" fill="#E4EEF7"/>
<path d="M439.755 553.669C439.755 593.109 407.783 625.081 368.343 625.081C328.903 625.081 296.931 593.109 296.931 553.669C296.931 514.229 328.903 482.257 368.343 482.257C407.783 482.257 439.755 514.229 439.755 553.669Z" fill="#E4EEF7"/>
<path d="M573.723 643.35C573.723 682.789 541.751 714.762 502.311 714.762C462.871 714.762 430.898 682.789 430.898 643.35C430.898 603.91 462.871 571.937 502.311 571.937C541.751 571.937 573.723 603.91 573.723 643.35Z" fill="#E4EEF7"/>
<path d="M290.288 714.762H500.65L495.667 618.438C475.738 604.045 427.355 575.259 393.255 575.259C359.154 575.259 310.402 595.188 290.288 605.152V714.762Z" fill="#E4EEF7"/>
<path fill-rule="evenodd" clip-rule="evenodd" d="M528.882 291.824C538.054 291.824 545.489 299.26 545.489 308.432V346.075C545.489 355.248 538.054 362.683 528.882 362.683C519.71 362.683 512.274 355.248 512.274 346.075V308.432C512.274 299.26 519.71 291.824 528.882 291.824ZM686.706 356.432C692.91 363.187 692.463 373.693 685.708 379.897L658.582 404.808C651.827 411.012 641.321 410.565 635.117 403.81C628.913 397.054 629.36 386.549 636.115 380.345L663.241 355.433C669.996 349.229 680.502 349.676 686.706 356.432ZM635.605 623.302C642.091 616.817 652.606 616.817 659.092 623.302L686.217 650.428C692.703 656.914 692.703 667.429 686.217 673.915C679.732 680.4 669.217 680.4 662.731 673.915L635.605 646.789C629.12 640.303 629.12 629.788 635.605 623.302Z" fill="#FF9601"/>
<path fill-rule="evenodd" clip-rule="evenodd" d="M321.288 225.394C330.46 225.394 337.896 232.83 337.896 242.002V307.325C337.896 316.497 330.46 323.932 321.288 323.932C312.116 323.932 304.681 316.497 304.681 307.325V242.002C304.681 232.83 312.116 225.394 321.288 225.394Z" fill="#090E48"/>
<path fill-rule="evenodd" clip-rule="evenodd" d="M388.825 307.325C388.825 316.497 381.39 323.932 372.218 323.932H321.288C312.116 323.932 304.681 316.497 304.681 307.325C304.681 298.153 312.116 290.717 321.288 290.717H372.218C381.39 290.717 388.825 298.153 388.825 307.325Z" fill="#090E48"/>
<path d="M675.879 503.689C675.874 494.517 683.304 487.077 692.477 487.071L730.838 487.048C740.01 487.043 747.45 494.474 747.455 503.646C747.461 512.818 740.03 520.258 730.858 520.263L692.496 520.286C683.324 520.292 675.885 512.861 675.879 503.689Z" fill="#FF9601"/>
</svg>
