<svg width="913" height="913" viewBox="0 0 913 913" fill="none" xmlns="http://www.w3.org/2000/svg">
<circle cx="456.5" cy="456.5" r="456.5" fill="#090E48"/>
<g filter="url(#filter0_i_33_28)">
<path d="M448.177 282.504C448.177 365.628 380.792 433.013 297.668 433.013C214.544 433.013 147.158 365.628 147.158 282.504C147.158 199.379 214.544 131.994 297.668 131.994C380.792 131.994 448.177 199.379 448.177 282.504Z" fill="#24B3FF"/>
</g>
<path fill-rule="evenodd" clip-rule="evenodd" d="M486.334 282.504C486.334 386.701 401.865 471.171 297.667 471.171C193.469 471.171 109 386.701 109 282.504C109 178.306 193.469 93.8367 297.667 93.8367C401.865 93.8367 486.334 178.306 486.334 282.504ZM297.667 433.013C380.791 433.013 448.177 365.628 448.177 282.504C448.177 199.379 380.791 131.994 297.667 131.994C214.543 131.994 147.157 199.379 147.157 282.504C147.157 365.628 214.543 433.013 297.667 433.013Z" fill="#E4EEF7"/>
<g filter="url(#filter1_i_33_28)">
<path d="M716.691 556.671C716.691 647.6 642.978 721.313 552.049 721.313C461.12 721.313 387.407 647.6 387.407 556.671C387.407 465.742 461.12 392.029 552.049 392.029C642.978 392.029 716.691 465.742 716.691 556.671Z" fill="#FF9601"/>
<path fill-rule="evenodd" clip-rule="evenodd" d="M549.223 276.144C560.931 276.144 570.421 285.635 570.421 297.342V345.392C570.421 357.1 560.931 366.591 549.223 366.591C537.515 366.591 528.024 357.1 528.024 345.392V297.342C528.024 285.635 537.515 276.144 549.223 276.144ZM750.677 358.612C758.596 367.235 758.025 380.645 749.402 388.564L714.778 420.362C706.155 428.281 692.745 427.71 684.826 419.087C676.907 410.464 677.477 397.054 686.1 389.135L720.725 357.337C729.348 349.418 742.758 349.989 750.677 358.612ZM685.449 699.257C693.728 690.979 707.15 690.979 715.429 699.257L750.053 733.882C758.332 742.16 758.332 755.582 750.053 763.861C741.774 772.139 728.352 772.139 720.074 763.861L685.449 729.237C677.171 720.958 677.171 707.536 685.449 699.257Z" fill="#FF9601"/>
<path d="M736.856 546.577C736.849 534.87 746.334 525.373 758.042 525.366L807.008 525.336C818.715 525.329 828.212 534.815 828.219 546.522C828.226 558.23 818.741 567.727 807.033 567.734L758.067 567.763C746.36 567.77 736.863 558.285 736.856 546.577Z" fill="#FF9601"/>
</g>
<g filter="url(#filter2_d_33_28)">
<path d="M325 742C325 782.869 292.541 816 252.5 816C212.459 816 180 782.869 180 742C180 701.131 212.459 668 252.5 668C292.541 668 325 701.131 325 742Z" fill="#E4EEF7"/>
<path d="M435.456 610.374C435.456 660.717 394.645 701.528 344.302 701.528C293.959 701.528 253.148 660.717 253.148 610.374C253.148 560.031 293.959 519.22 344.302 519.22C394.645 519.22 435.456 560.031 435.456 610.374Z" fill="#E4EEF7"/>
<path d="M606.46 724.846C606.46 775.189 565.649 816 515.306 816C464.963 816 424.152 775.189 424.152 724.846C424.152 674.503 464.963 633.693 515.306 633.693C565.649 633.693 606.46 674.503 606.46 724.846Z" fill="#E4EEF7"/>
<path d="M244.671 816H513.186L506.826 693.048C481.388 674.676 419.629 637.932 376.102 637.932C332.574 637.932 270.345 663.37 244.671 676.089V816Z" fill="#E4EEF7"/>
</g>
<path fill-rule="evenodd" clip-rule="evenodd" d="M284.241 191.35C295.948 191.35 305.439 200.841 305.439 212.548V295.929C305.439 307.637 295.948 317.128 284.241 317.128C272.533 317.128 263.042 307.637 263.042 295.929V212.548C263.042 200.841 272.533 191.35 284.241 191.35Z" fill="#090E48"/>
<path fill-rule="evenodd" clip-rule="evenodd" d="M370.447 295.929C370.447 307.637 360.956 317.128 349.249 317.128H284.24C272.532 317.128 263.041 307.637 263.041 295.929C263.041 284.222 272.532 274.731 284.24 274.731H349.249C360.956 274.731 370.447 284.222 370.447 295.929Z" fill="#090E48"/>
<defs>
<filter id="filter0_i_33_28" x="147.158" y="131.994" width="302.02" height="305.019" filterUnits="userSpaceOnUse" color-interpolation-filters="sRGB">
<feFlood flood-opacity="0" result="BackgroundImageFix"/>
<feBlend mode="normal" in="SourceGraphic" in2="BackgroundImageFix" result="shape"/>
<feColorMatrix in="SourceAlpha" type="matrix" values="0 0 0 0 0 0 0 0 0 0 0 0 0 0 0 0 0 0 127 0" result="hardAlpha"/>
<feOffset dx="1" dy="4"/>
<feGaussianBlur stdDeviation="2"/>
<feComposite in2="hardAlpha" operator="arithmetic" k2="-1" k3="1"/>
<feColorMatrix type="matrix" values="0 0 0 0 0 0 0 0 0 0 0 0 0 0 0 0 0 0 0.1 0"/>
<feBlend mode="normal" in2="shape" result="effect1_innerShadow_33_28"/>
</filter>
<filter id="filter1_i_33_28" x="387.407" y="276.144" width="444.812" height="497.926" filterUnits="userSpaceOnUse" color-interpolation-filters="sRGB">
<feFlood flood-opacity="0" result="BackgroundImageFix"/>
<feBlend mode="normal" in="SourceGraphic" in2="BackgroundImageFix" result="shape"/>
<feColorMatrix in="SourceAlpha" type="matrix" values="0 0 0 0 0 0 0 0 0 0 0 0 0 0 0 0 0 0 127 0" result="hardAlpha"/>
<feOffset dx="4" dy="4"/>
<feGaussianBlur stdDeviation="2"/>
<feComposite in2="hardAlpha" operator="arithmetic" k2="-1" k3="1"/>
<feColorMatrix type="matrix" values="0 0 0 0 0.340967 0 0 0 0 0.338959 0 0 0 0 0.336111 0 0 0 0.2 0"/>
<feBlend mode="normal" in2="shape" result="effect1_innerShadow_33_28"/>
</filter>
<filter id="filter2_d_33_28" x="175" y="513.22" width="446.46" height="316.78" filterUnits="userSpaceOnUse" color-interpolation-filters="sRGB">
<feFlood flood-opacity="0" result="BackgroundImageFix"/>
<feColorMatrix in="SourceAlpha" type="matrix" values="0 0 0 0 0 0 0 0 0 0 0 0 0 0 0 0 0 0 127 0" result="hardAlpha"/>
<feOffset dx="5" dy="4"/>
<feGaussianBlur stdDeviation="5"/>
<feComposite in2="hardAlpha" operator="out"/>
<feColorMatrix type="matrix" values="0 0 0 0 0 0 0 0 0 0 0 0 0 0 0 0 0 0 0.1 0"/>
<feBlend mode="normal" in2="BackgroundImageFix" result="effect1_dropShadow_33_28"/>
<feBlend mode="normal" in="SourceGraphic" in2="effect1_dropShadow_33_28" result="shape"/>
</filter>
</defs>
</svg>
