<svg width="916" height="1057" viewBox="0 0 916 1057" fill="none" xmlns="http://www.w3.org/2000/svg">
<path fill-rule="evenodd" clip-rule="evenodd" d="M0 351.674C0 157.273 157.099 0.173523 351.5 0.173523C545.901 0.173523 703 157.273 703 351.674C703 366.253 702.116 380.623 700.4 394.732H641.449C643.53 380.675 644.608 366.297 644.608 351.674C644.608 190.127 513.047 58.5656 351.5 58.5656C189.953 58.5656 58.392 190.127 58.392 351.674C58.392 445.376 102.654 528.99 171.356 582.693V653.699C68.6553 592.399 0 480.187 0 351.674Z" fill="#464B4F"/>
<path d="M417.353 321.688H381.486V184.101C381.486 167.602 368 154.116 351.501 154.116C335.002 154.116 321.516 167.602 321.516 184.101V351.674C321.516 368.173 335.002 381.659 351.501 381.659H417.353C433.852 381.659 447.338 368.173 447.338 351.674C447.338 335.175 433.709 321.688 417.353 321.688Z" fill="#464B4F"/>
<path d="M466.287 433.76C466.287 416.619 480.182 402.724 497.323 402.724C514.464 402.724 528.359 416.619 528.359 433.76V464.796C528.359 481.937 514.464 495.832 497.323 495.832C480.182 495.832 466.287 481.937 466.287 464.796V433.76Z" fill="#464B4F"/>
<path fill-rule="evenodd" clip-rule="evenodd" d="M636.671 621.838C608.36 584.142 563.281 559.758 512.509 559.758C426.806 559.758 357.329 629.235 357.329 714.937C357.329 725.84 358.454 736.482 360.593 746.749C349.64 751.1 339.484 756.463 330.152 762.776C289.573 790.224 268.849 832.737 264.923 875.768C257.27 959.655 314.479 1056.33 424.896 1056.33H777.947C821.468 1056.33 856.747 1042.67 881.175 1018.74C905.433 994.986 916.544 963.441 915.954 932.471C914.927 878.713 878.792 826.235 815.956 811.021C824.814 731.352 769.241 660.822 701.58 634.097C681.251 626.067 659.209 621.615 636.671 621.838ZM566.058 638.966C550.919 628.278 532.446 621.999 512.509 621.999C461.18 621.999 419.57 663.609 419.57 714.937C419.57 721.398 420.229 727.705 421.484 733.794C438.068 732.813 455.788 733.527 474.596 736.06C498.521 689.074 530.072 656.986 566.058 638.966ZM522.363 780.407C543.737 730.34 571.583 704.338 597.892 692.551C624.285 680.729 652.757 681.551 678.778 691.829C733.227 713.336 767.481 770.55 749.959 823.69C742.727 845.623 758.819 868.049 781.503 868.76C830.292 870.29 853.314 903.35 853.892 933.656C854.187 949.059 848.733 963.634 837.744 974.397C826.921 984.999 808.269 994.26 777.947 994.26H424.896C359.384 994.26 321.588 937.855 326.738 881.407C329.213 854.273 341.843 829.807 364.929 814.19C388.057 798.548 425.967 788.948 484.108 800.565C499.874 803.715 515.972 795.379 522.363 780.407Z" fill="#464B4F"/>
<path d="M217.999 682.046C217.999 699.187 231.894 713.082 249.035 713.082H280.071C297.211 713.082 311.107 699.187 311.107 682.046C311.107 664.907 297.211 651.011 280.071 651.011H249.035C231.894 651.011 217.999 664.907 217.999 682.046Z" fill="#464B4F"/>
<path d="M299.812 528.431C287.692 516.311 287.692 496.66 299.812 484.54C311.932 472.419 331.583 472.419 343.703 484.54L365.649 506.485C377.769 518.606 377.769 538.257 365.649 550.377C353.529 562.497 333.878 562.497 321.758 550.377L299.812 528.431Z" fill="#464B4F"/>
<path d="M628.996 506.478C616.876 518.598 616.876 538.25 628.996 550.37C641.119 562.49 660.767 562.49 672.89 550.37L694.836 528.424C706.955 516.304 706.955 496.653 694.836 484.533C682.713 472.412 663.064 472.412 650.944 484.533L628.996 506.478Z" fill="#464B4F"/>
</svg>
